<?xml version="1.0" encoding="UTF-8" standalone="no"?>
<!-- Created with Inkscape (http://www.inkscape.org/) -->

<svg
   xmlns:dc="http://purl.org/dc/elements/1.1/"
   xmlns:cc="http://creativecommons.org/ns#"
   xmlns:rdf="http://www.w3.org/1999/02/22-rdf-syntax-ns#"
   xmlns:svg="http://www.w3.org/2000/svg"
   xmlns="http://www.w3.org/2000/svg"
   xmlns:xlink="http://www.w3.org/1999/xlink"
   xmlns:sodipodi="http://sodipodi.sourceforge.net/DTD/sodipodi-0.dtd"
   xmlns:inkscape="http://www.inkscape.org/namespaces/inkscape"
   width="644.25098"
   height="221.64038"
   viewBox="0 0 644.25097 221.64039"
   id="svg2"
   version="1.1"
   inkscape:version="0.92.3 (2405546, 2018-03-11)"
   sodipodi:docname="RCTI_Plus.svg">
  <defs
     id="defs4">
    <linearGradient
       inkscape:collect="always"
       id="linearGradient908">
      <stop
         style="stop-color:#ffa11c;stop-opacity:1"
         offset="0"
         id="stop904" />
      <stop
         style="stop-color:#d71e55;stop-opacity:1"
         offset="1"
         id="stop906" />
    </linearGradient>
    <linearGradient
       inkscape:collect="always"
       id="linearGradient889">
      <stop
         style="stop-color:#2197c9;stop-opacity:1;"
         offset="0"
         id="stop885" />
      <stop
         style="stop-color:#0f8abd;stop-opacity:1"
         offset="1"
         id="stop887" />
    </linearGradient>
    <pattern
       y="0"
       x="0"
       height="6"
       width="6"
       patternUnits="userSpaceOnUse"
       id="EMFhbasepattern" />
    <pattern
       y="0"
       x="0"
       height="6"
       width="6"
       patternUnits="userSpaceOnUse"
       id="EMFhbasepattern-2" />
    <clipPath
       id="clipEmfPath1"
       clipPathUnits="userSpaceOnUse">
      <path
         inkscape:connector-curvature="0"
         id="path4360"
         d="m 1117.6,0.0961475 c 37.52,0 75.01,0 112.5,0 0,124.5808525 0,249.1608525 0,373.7418525 -37.49,0 -74.98,0 -112.5,0 0,-124.581 0,-249.161 0,-373.7418525 z" />
    </clipPath>
    <clipPath
       id="clipEmfPath2"
       clipPathUnits="userSpaceOnUse">
      <path
         inkscape:connector-curvature="0"
         id="path4363"
         d="m 750.115,0.0961475 c 115.832,0 231.664,0 347.495,0 0,35.0072525 0,70.0145525 0,104.9868525 -39.15,0 -78.34,0 -117.496,0 0,89.608 0,179.181 0,268.755 -37.489,0 -75.013,0 -112.502,0 0,-89.574 0,-179.147 0,-268.755 -39.189,0 -78.343,0 -117.497,0 0,-34.9723 0,-69.9796 0,-104.9868525 z" />
    </clipPath>
    <clipPath
       id="clipEmfPath3"
       clipPathUnits="userSpaceOnUse">
      <path
         inkscape:connector-curvature="0"
         id="path4366"
         d="m 108.735,0.0961475 c 0.921,1.2047025 1.807,2.4094025 3.295,4.7125125 1.524,2.26768 3.615,5.59834 5.918,9.95654 2.303,4.3582 4.783,9.7085 7.086,16.795 2.304,7.0865 4.43,15.8383 5.457,22.7476 1.028,6.9093 0.957,11.9407 0.886,16.9722 8.185,-3.1181 16.406,-6.2362 25.618,-8.7873 9.248,-2.5511 19.489,-4.5353 29.197,-5.8818 9.674,-1.3818 18.78,-2.0905 26.753,-2.4803 7.937,-0.3543 14.705,-0.3188 24.094,0.2835 9.39,0.6378 21.402,1.8779 31.04,3.685 9.638,1.807 16.937,4.2164 22.996,6.8384 6.06,2.6575 10.878,5.5275 14.386,8.5038 3.544,2.9764 5.811,6.059 8.079,9.1416 h -61.619 c 1.347,2.2677 2.658,4.5354 4.678,6.9802 1.984,2.4803 4.641,5.1377 8.114,7.2637 3.472,2.1613 7.76,3.7912 11.587,4.9962 3.791,1.24 7.086,2.019 10.842,2.48 3.721,0.461 7.902,0.638 12.048,0.78 h 62.15 c 6.378,2.409 12.756,4.783 18.354,8.61 5.599,3.862 10.453,9.177 14.138,14.81 3.65,5.634 6.166,11.622 7.3,17.256 1.133,5.598 0.921,10.878 0.708,16.157 -3.756,-3.401 -7.476,-6.803 -12.685,-9.283 -5.209,-2.48 -11.87,-4.039 -19.63,-4.784 -7.76,-0.779 -16.583,-0.744 -25.548,-0.141 -8.929,0.602 -17.929,1.771 -28.346,3.862 -10.418,2.055 -22.182,5.031 -36.745,9.708 -14.598,4.713 -31.996,11.091 -46.488,17.787 -14.493,6.697 -26.15,13.642 -34.264,18.673 -8.115,5.067 -12.756,8.185 -16.973,11.091 -4.217,2.941 -8.008,5.704 -11.764,8.468 -3.72,2.799 -7.406,5.598 -11.091,8.398 0.107,0.389 0.248,0.744 0.355,1.098 2.126,6.165 4.252,12.331 7.76,20.374 3.543,8.007 8.504,17.893 17.787,31.322 9.284,13.393 22.89,30.366 37.949,44.857 15.095,14.492 31.642,26.504 43.654,34.512 11.977,8.007 19.418,11.976 26.859,15.98 50.918,0 101.836,0 152.789,0 -7.76,-3.65 -15.52,-7.335 -26.646,-13.004 -11.091,-5.669 -25.512,-13.323 -40.607,-22.889 -15.059,-9.567 -30.756,-20.976 -44.044,-32.669 -13.287,-11.693 -24.13,-23.669 -31.358,-32.811 -7.264,-9.177 -10.878,-15.519 -14.528,-21.897 8.54,-0.142 17.044,-0.319 24.556,-1.027 7.476,-0.744 13.96,-2.091 21.082,-4.359 7.087,-2.267 14.847,-5.456 21.083,-8.61 6.237,-3.153 10.949,-6.271 14.351,-8.681 3.401,-2.409 5.527,-4.11 7.653,-5.846 2.126,7.831 4.288,15.661 7.123,23.421 2.87,7.76 6.484,15.484 10.523,23.066 4.004,7.583 8.504,14.988 12.012,20.41 3.544,5.385 6.095,8.787 11.233,14.633 5.102,5.811 12.72,14.102 20.764,21.012 8.043,6.944 16.476,12.543 25.441,17.716 8.929,5.173 18.425,9.956 27.992,13.748 9.603,3.755 19.311,6.555 28.311,8.751 8.965,2.197 17.257,3.827 24.485,5.032 7.264,1.205 13.465,1.984 19.453,2.586 5.953,0.567 11.693,0.993 16.583,1.205 4.854,0.213 8.858,0.213 12.897,0.213 45.426,0 90.852,0 136.277,0 0,-33.342 0,-66.649 0,-99.991 -37.028,0 -74.091,0 -111.154,-0.035 -6.095,-0.036 -12.189,-0.106 -18.319,-0.496 -6.166,-0.425 -12.402,-1.134 -19.489,-2.658 -7.086,-1.488 -15.023,-3.791 -22.181,-6.484 -7.193,-2.657 -13.606,-5.704 -19.453,-9.07 -5.846,-3.402 -11.126,-7.158 -16.193,-11.729 -5.032,-4.606 -9.85,-10.027 -13.536,-16.263 -3.72,-6.236 -6.307,-13.252 -7.866,-19.169 -1.559,-5.953 -2.055,-10.772 -2.303,-14.917 -0.213,-4.146 -0.177,-7.583 0.177,-11.693 0.319,-4.145 0.957,-8.893 2.197,-13.783 1.24,-4.89 3.083,-9.921 5.457,-14.917 2.409,-4.996 5.315,-9.957 8.858,-14.598 3.508,-4.642 7.654,-8.894 12.827,-13.075 5.209,-4.145 11.516,-8.185 17.54,-11.09 6.023,-2.87 11.799,-4.606 16.512,-5.776 4.712,-1.134 8.362,-1.7 12.012,-2.09 3.685,-0.425 7.334,-0.673 9.815,-0.78 2.196,-0.106 3.472,-0.141 20.693,-0.141 h 0.886 0.956 0.992 0.39 0.638 1.027 1.063 1.134 1.134 1.17 0.566 0.638 1.24 1.276 1.276 1.346 0.957 0.39 1.381 1.418 1.453 1.488 0.602 0.886 1.524 1.559 1.559 1.205 0.425 1.63 1.63 1.665 1.382 0.319 1.736 1.736 1.772 1.169 0.603 1.807 1.807 1.842 0.674 1.204 1.878 1.878 1.772 0.142 1.948 1.949 1.949 0.744 1.24 1.985 2.019 1.489 0.531 2.02 2.055 2.055 0.071 1.984 2.091 2.09 0.567 1.524 2.126 2.091 0.992 1.134 2.126 2.161 1.311 0.85 2.126 2.162 1.594 0.567 2.197 2.162 1.807 0.354 2.197 2.161 2.02 0.177 2.197 2.197 2.161 v -0.319 -0.355 -0.354 -0.354 -0.248 -0.107 -0.354 -0.354 -0.355 -0.354 -0.106 -0.248 -0.355 -0.354 -0.354 -0.319 -0.3545 -0.3543 -0.3543 -0.3544 -0.248 -0.1063 -0.3543 -0.3543 -0.3544 -0.3543 -0.1063 -0.248 -0.3543 -0.3544 -0.3188 -0.3544 -0.3543 -0.3543 -0.3543 -0.3544 -0.248 -0.1063 -0.3543 -0.3543 -0.3544 -0.3543 -0.1063 -0.248 -0.3543 -0.3189 -0.3544 -0.3543 -0.3543 -0.3543 -0.3544 -0.3543 -0.248 -0.1063 -0.3543 -0.3544 -0.3543 -0.3543 -0.1063 -0.248 -0.3189 -0.3543 -0.3544 -0.3543 0 -0.3543 -0.3543 -0.3544 -0.3543 -0.2126 -0.1417 -0.3543 -0.3544 -0.3543 -82.4867525 c -55.914,0 -111.827,0 -167.777,0 -3.508,0 -7.016,0 -13.181,0.4606215 -6.165,0.460621 -14.988,1.346431 -23.67,3.118061 -8.681,1.77162 -17.256,4.39362 -24.874,7.08647 -7.583,2.6575 -14.209,5.4212 -21.579,9.1416 -7.334,3.7204 -15.449,8.4329 -23.74,14.6336 -8.292,6.1652 -16.725,13.8541 -22.855,20.1611 -6.13,6.3424 -9.886,11.3384 -12.614,15.1651 -2.693,3.8267 -4.323,6.4487 -5.953,9.1061 -1.771,-3.8621 -3.508,-7.6888 -5.953,-12.3305 -2.445,-4.6771 -5.563,-10.1337 -10.63,-16.9367 C 392.202,42.8986 385.151,34.7491 375.62,27.2374 366.052,19.7257 353.934,12.8164 339.159,8.52907 324.347,4.24175 306.843,2.57642 289.729,1.61974 272.615,0.627634 255.89,0.379607 239.165,0.0961475 c -43.476,0 -86.953,0 -130.43,0 z" />
    </clipPath>
    <pattern
       y="0"
       x="0"
       height="6"
       width="6"
       patternUnits="userSpaceOnUse"
       id="EMFhbasepattern-9" />
    <pattern
       y="0"
       x="0"
       height="6"
       width="6"
       patternUnits="userSpaceOnUse"
       id="EMFhbasepattern-7" />
    <linearGradient
       inkscape:collect="always"
       xlink:href="#linearGradient889"
       id="linearGradient893"
       x1="0"
       y1="1051.4192"
       x2="230.62015"
       y2="1053.6146"
       gradientUnits="userSpaceOnUse" />
    <linearGradient
       inkscape:collect="always"
       xlink:href="#linearGradient908"
       id="linearGradient910"
       x1="549.6582"
       y1="1013.6289"
       x2="679.37317"
       y2="1013.3431"
       gradientUnits="userSpaceOnUse"
       gradientTransform="matrix(0.69035704,0,0,0.69035704,96.137162,330.22671)" />
  </defs>
  <sodipodi:namedview
     id="base"
     pagecolor="#ffffff"
     bordercolor="#666666"
     borderopacity="1.0"
     inkscape:pageopacity="0.0"
     inkscape:pageshadow="2"
     inkscape:zoom="0.186875"
     inkscape:cx="414.06104"
     inkscape:cy="263.33778"
     inkscape:document-units="px"
     inkscape:current-layer="layer1"
     showgrid="false"
     units="px"
     inkscape:window-width="1366"
     inkscape:window-height="745"
     inkscape:window-x="-8"
     inkscape:window-y="-8"
     inkscape:window-maximized="1"
     fit-margin-top="0"
     fit-margin-left="0"
     fit-margin-right="0"
     fit-margin-bottom="0" />
  <metadata
     id="metadata7">
    <rdf:RDF>
      <cc:Work
         rdf:about="">
        <dc:format>image/svg+xml</dc:format>
        <dc:type
           rdf:resource="http://purl.org/dc/dcmitype/StillImage" />
        <dc:title></dc:title>
      </cc:Work>
    </rdf:RDF>
  </metadata>
  <g
     inkscape:label="Layer 1"
     inkscape:groupmode="layer"
     id="layer1"
     transform="translate(11.648035,-955.65558)">
    <path
       inkscape:connector-curvature="0"
       id="path4371"
       d=""
       clip-path="url(#clipEmfPath1)"
       style="fill:#ffffff;fill-opacity:1;fill-rule:evenodd;stroke:#000000;stroke-width:1px;stroke-linecap:butt;stroke-linejoin:miter;stroke-miterlimit:4;stroke-dasharray:none;stroke-opacity:1"
       transform="matrix(0.86421854,0,0,0.86421854,-0.02345489,961.18244)" />
    <path
       inkscape:connector-curvature="0"
       id="path4377"
       d=""
       clip-path="url(#clipEmfPath2)"
       style="fill:#ffffff;fill-opacity:1;fill-rule:evenodd;stroke:#000000;stroke-width:1px;stroke-linecap:butt;stroke-linejoin:miter;stroke-miterlimit:4;stroke-dasharray:none;stroke-opacity:1"
       transform="matrix(0.86421854,0,0,0.86421854,-0.02345489,961.18244)" />
    <path
       inkscape:connector-curvature="0"
       id="path4385"
       d=""
       clip-path="url(#clipEmfPath3)"
       style="fill:#ffffff;fill-opacity:1;fill-rule:evenodd;stroke:#000000;stroke-width:1px;stroke-linecap:butt;stroke-linejoin:miter;stroke-miterlimit:4;stroke-dasharray:none;stroke-opacity:1"
       transform="matrix(0.86421854,0,0,0.86421854,-0.02345489,961.18244)" />
    <path
       id="rect863"
       style="fill:url(#linearGradient910);fill-opacity:1;fill-rule:evenodd;stroke-width:0.73967153"
       d="m 541.42836,955.65558 v 148.67392 h 34.76455 v -56.5849 h 56.41006 v -35.1344 h -56.41006 v -56.95462 z m -65.83077,56.95512 h 56.58487 v 35.1344 h -56.58487 z"
       inkscape:connector-curvature="0" />
    <g
       id="g878"
       transform="matrix(1.6679134,0,0,1.682684,-11.648035,-674.08435)">
      <path
         id="path837"
         style="fill:url(#linearGradient893);fill-opacity:1;fill-rule:evenodd;stroke:none;stroke-width:1.07143331"
         d="m 190.76648,1024.1421 v -21.5575 h -43.8442 c -0.91673,0 -1.83346,0 -3.44453,0.12 -1.61106,0.12 -3.91672,0.3518 -6.18555,0.8147 -2.26855,0.4629 -4.5094,1.1481 -6.50018,1.8519 -1.98161,0.6945 -3.71316,1.4168 -5.63911,2.3888 -1.91655,0.9723 -4.03721,2.2037 -6.20385,3.8243 -2.1669,1.611 -4.37065,3.6202 -5.97256,5.2686 -1.60192,1.6572 -2.58345,2.9629 -3.29635,3.9629 -0.70374,1.0001 -1.12971,1.6853 -1.55566,2.3798 -0.46281,-1.0095 -0.91673,-2.0095 -1.55567,-3.2225 -0.63894,-1.2221 -1.45374,-2.6482 -2.77787,-4.4259 -1.32413,-1.7779 -3.16674,-3.9073 -5.657415,-5.8704 -2.500393,-1.963 -5.66712,-3.7685 -9.52818,-4.889 -3.870745,-1.1203 -8.444962,-1.5554 -12.917272,-1.8054 -4.472303,-0.2594 -8.842952,-0.3243 -13.213601,-0.3983 h -34.084539 2.7e-5 v 0 c 0.240679,0.3147 0.472213,0.6296 0.861065,1.2314 0.398257,0.5928 0.944688,1.463 1.546517,2.602 0.601829,1.1388 1.249915,2.5371 1.851744,4.389 0.602091,1.8517 1.157668,4.1387 1.426046,5.9444 0.268642,1.8055 0.250089,3.1204 0.231534,4.4352 2.13894,-0.8147 4.287288,-1.6297 6.694609,-2.2964 2.416727,-0.6665 5.092951,-1.1852 7.629887,-1.537 2.528053,-0.3611 4.907671,-0.5462 6.991211,-0.648 2.074132,-0.093 3.842774,-0.085 6.296349,0.073 2.453836,0.1667 5.592864,0.4907 8.111507,0.963 2.518646,0.4722 4.426053,1.1018 6.009413,1.787 1.583629,0.6945 2.842693,1.4445 3.759409,2.2221 0.926147,0.7779 1.518564,1.5835 2.111248,2.3891 M 0,1002.5863 c 0,32.5559 0,65.1117 0,97.6678 19.380368,0 38.760627,0 58.141226,0 -0.907579,-0.5094 -1.814896,-1.0185 -3.027966,-1.8242 -1.213067,-0.8149 -2.722475,-1.9259 -5.009587,-3.7591 -2.296257,-1.8428 -5.36133,-4.4168 -8.787293,-8.2781 -3.416816,-3.8703 -7.203928,-9.0276 -10.129978,-15.2407 -2.926048,-6.2037 -5.009588,-13.454 -6.27803,-21.1672 -1.277823,-7.7128 -1.750063,-15.8798 -2.092687,-21.3242 -0.342595,-5.4353 -0.564826,-8.1483 -0.907448,-10.5094 -0.333345,-2.3704 -0.787056,-4.389 -1.481526,-6.3982 -0.694469,-2.0093 -1.62042,-3.9908 -2.768626,-5.4075 -1.138931,-1.4259 -2.509342,-2.2686 -3.629771,-2.8055 -1.129678,-0.5279 -2.02785,-0.7408 -2.676014,-0.8428 -0.648188,-0.1111 -1.055619,-0.1111 -2.9075204,-0.1111 -1.8519272,0 -5.1483514,0 -8.4447796,0 z m 195.99904,3e-4 v 21.5561 h 90.80815 v -21.5561 z m 30.70326,27.4345 v 70.2332 h 29.39953 v -70.2332 z m 65.32815,0 v 70.2332 h 29.39953 v -70.2332 z m -198.887956,7e-4 c 0,0 0,0 0,0 0.851908,0.12 1.69443,0.2314 2.814989,0.6018 1.120289,0.3703 2.518639,0.9908 3.768551,1.9351 1.250166,0.9538 2.361326,2.2223 3.240946,3.6391 0.87961,1.4165 1.53711,2.9813 1.83345,4.4536 0.29608,1.463 0.24068,2.8427 0.18503,4.2223 -0.98154,-0.8889 -1.95367,-1.7779 -3.3149,-2.4259 -1.36124,-0.6481 -3.101921,-1.0554 -5.12979,-1.2503 -2.027891,-0.2045 -4.33354,-0.1934 -6.676327,-0.038 -2.333366,0.1578 -4.68528,0.4629 -7.407502,1.0094 -2.722469,0.5372 -5.796689,1.3148 -9.602355,2.5369 -3.814812,1.2316 -8.361336,2.8984 -12.148448,4.6483 -3.787375,1.7499 -6.833634,3.5649 -8.954021,4.8797 -2.120646,1.324 -3.333451,2.1388 -4.435458,2.8982 -1.102004,0.7687 -2.092685,1.4907 -3.074218,2.213 -0.972128,0.7314 -1.935369,1.4628 -2.89835,2.1946 0.02796,0.1022 0.0648,0.1933 0.09276,0.2869 0.555574,1.611 1.111151,3.2225 2.027876,5.3242 0.925874,2.0923 2.222302,4.6758 4.648177,8.1852 2.426135,3.5 5.981714,7.9355 9.916997,11.7222 3.944693,3.7873 8.268827,6.9262 11.407855,9.0188 3.129884,2.0926 5.074394,3.1298 7.018913,4.1761 h 39.927491 c -2.02789,-0.9539 -4.05576,-1.9168 -6.96325,-3.3982 -2.89835,-1.4815 -6.66691,-3.4816 -10.611596,-5.9816 -3.935287,-2.5002 -8.037302,-5.4815 -11.509775,-8.5372 -3.472215,-3.0558 -6.305758,-6.1854 -8.194609,-8.5744 -1.898258,-2.398 -2.842693,-4.0554 -3.796527,-5.7222 2.231715,-0.038 4.454022,-0.085 6.41708,-0.2682 1.953673,-0.1956 3.648092,-0.5465 5.509245,-1.1392 1.852006,-0.5923 3.879886,-1.4257 5.509502,-2.2502 1.629875,-0.8238 2.861241,-1.6386 3.750264,-2.2684 0.888765,-0.6296 1.444346,-1.0741 1.999916,-1.5276 0.55557,2.0463 1.120559,4.0925 1.86142,6.1204 0.75001,2.0279 1.69442,4.0465 2.74991,6.0277 1.04634,1.9817 2.22231,3.9168 3.13903,5.3335 0.92613,1.4075 1.59278,2.2964 2.93546,3.8241 1.33328,1.5185 3.32405,3.6851 5.42614,5.491 2.10183,1.8146 4.30557,3.2776 6.64836,4.6297 2.33336,1.3516 4.81489,2.6015 7.31498,3.5925 2.5095,0.9814 5.04643,1.713 7.39836,2.287 2.34277,0.5741 4.50967,1.0001 6.39853,1.315 1.89826,0.3147 3.51873,0.5183 5.08354,0.6758 1.55566,0.1489 3.05566,0.2594 4.33355,0.3147 1.26846,0.056 2.3148,0.056 3.3703,0.056 h 35.61249 v -26.1301 c -9.67632,0 -19.36178,0 -29.04725,0 -1.59277,-0.022 -3.18528,-0.029 -4.7872,-0.1289 -1.61133,-0.1111 -3.24093,-0.2962 -5.09295,-0.6945 -1.85175,-0.3889 -3.92588,-0.9907 -5.79643,-1.6945 -1.87971,-0.6943 -3.55559,-1.4906 -5.08355,-2.3702 -1.5277,-0.889 -2.90749,-1.8706 -4.23162,-3.0649 -1.31499,-1.2039 -2.57405,-2.6204 -3.5373,-4.2501 -0.97212,-1.6296 -1.64816,-3.4629 -2.05557,-5.0092 -0.4074,-1.5557 -0.53701,-2.8151 -0.60184,-3.8981 -0.0556,-1.0836 -0.0462,-1.9817 0.0463,-3.0557 0.0834,-1.0832 0.25007,-2.3242 0.57412,-3.6018 0.32405,-1.2781 0.80566,-2.5927 1.42605,-3.8983 0.62953,-1.3057 1.38894,-2.602 2.31481,-3.8147 0.91673,-1.2132 2.00017,-2.3244 3.35201,-3.4169 1.36124,-1.0832 3.00941,-2.1391 4.58362,-2.8982 1.57396,-0.7499 3.08336,-1.2037 4.315,-1.5093 1.23135,-0.2964 2.18518,-0.4442 3.13902,-0.5462 0.96298,-0.1111 1.91656,-0.1756 2.5649,-0.2045 0.64808,-0.038 0.99068,-0.038 7.25933,-0.038"
         inkscape:connector-curvature="0" />
    </g>
    <path
       style="fill:#1371ae;fill-opacity:1;stroke:none;stroke-width:0.73967153px;stroke-linecap:butt;stroke-linejoin:miter;stroke-opacity:1"
       d="m 113.95985,1123.09 c -8.56059,-0.053 -16.476609,-0.9509 -24.858924,-2.3307 -11.625506,-2.4683 -21.068567,-3.5384 -31.18221,-7.9514 v 2.6238 c 12.343162,8.4065 26.227427,16.0982 37.958987,21.6802 16.278167,7.6996 32.645237,13.7678 49.984717,19.4272 -9.38902,-8.0565 -24.27447,-19.0229 -31.90257,-33.4491 z"
       id="path871"
       inkscape:connector-curvature="0"
       sodipodi:nodetypes="ccccccc" />
  </g>
</svg>
