<?xml version="1.0" encoding="UTF-8"?>
<svg width="1021px" height="567px" viewBox="0 0 1021 567" version="1.1" xmlns="http://www.w3.org/2000/svg" xmlns:xlink="http://www.w3.org/1999/xlink">
    <!-- Generator: Sketch 49 (51002) - http://www.bohemiancoding.com/sketch -->
    <title>rg-logo-putih</title>
    <desc>Created with Sketch.</desc>
    <defs></defs>
    <g id="Page-1" stroke="none" stroke-width="1" fill="none" fill-rule="evenodd">
        <g id="rg-logo-putih" transform="translate(-1.000000, -1.000000)" fill="#2DB5C0" fill-rule="nonzero">
            <path d="M32.11,34.93 C35.2153351,36.9794344 37.6796733,39.8631607 39.22,43.25 C41.0133333,46.8033333 41.9066667,51.5166667 41.9,57.39 L41.9,182 C41.9,188.233333 41.0066667,193.233333 39.22,197 C37.7507719,200.497589 35.3244858,203.50965 32.22,205.69 C29.1388301,207.788528 25.6195624,209.156562 21.93,209.69 C18.69,210.23 9.98,210.54 4.37,210.63 C3.46832938,210.632604 2.60507584,210.995371 1.97220793,211.637629 C1.33934001,212.279887 0.989325536,213.148389 1,214.05 L1,224.05 C1,224.949084 1.35715969,225.811344 1.99290801,226.447092 C2.62865633,227.08284 3.4909161,227.44 4.39,227.44 L119.79,227.44 C121.662245,227.44 123.18,225.922245 123.18,224.05 L123.18,214.05 C123.18,212.177755 121.662245,210.66 119.79,210.66 L112.09,210.66 C107.870739,210.677374 103.655951,210.383241 99.48,209.78 C95.7978054,209.256241 92.250326,208.030748 89.03,206.17 C85.9443718,204.225081 83.4994437,201.414978 82,198.09 C80.2,194.56 79.32,189.83 79.32,183.97 L79.32,121.17 C79.32,116.09 79.57,110.45 80.14,104.17 C80.6728969,97.864448 81.5441523,91.5920767 82.75,85.38 C83.9950841,79.1310927 85.6282471,72.965819 87.64,66.92 C89.4425608,61.3257675 91.9350914,55.977912 95.06,51 C97.7227123,46.6761964 101.184355,42.898933 105.26,39.87 C109.138673,37.1106794 113.790151,35.6476865 118.55,35.69 C126.34,35.69 131.82,38.13 134.95,42.97 C137.743333,47.3633333 139.28,54.2233333 139.56,63.55 C139.630532,65.4092529 141.190439,66.8618891 143.05,66.8 C147.692326,66.7105002 152.305056,66.0385803 156.78,64.8 C160.975226,63.7041034 164.888785,61.7268696 168.26,59 C171.177277,56.6052131 173.438044,53.5082713 174.83,50 C176.245645,46.3298722 176.9482,42.423391 176.9,38.49 C176.9,29.25 173.36,22.07 166.27,17.03 C159.18,11.99 148.34,9.4 133.77,9.4 C124.89,9.4 117.57,10.53 111.71,12.81 C106.219371,14.8702664 101.211988,18.0394532 97,22.12 C92.9728003,26.2049535 89.5998082,30.8866665 87,36 C85.59,38.7 83,43.08 80.84,46.7 C80.4008792,47.5149235 79.4599023,47.922009 78.5652973,47.6840822 C77.6706923,47.4461553 77.0562689,46.6253995 77.08,45.7 L77.08,30.22 C77.0469454,20.8545992 69.4454591,13.2799417 60.08,13.28 L4.39,13.28 C2.5177547,13.28 1,14.7977547 1,16.67 C1.00836159,24.0625927 6.82506541,30.143492 14.21,30.48 C17.42,30.63 20.33,30.81 21.71,31.03 C25.4131671,31.5810324 28.95762,32.9102022 32.11,34.93 Z" id="Shape"></path>
            <path d="M514,103.6 C483.446667,104.52 460.63,110.106667 445.55,120.36 C430.47,130.613333 422.92,146.353333 422.9,167.58 C422.9,178.5 424.49,187.98 427.6,195.95 C430.40437,203.468024 434.844788,210.268694 440.6,215.86 C446.221327,221.165622 452.949612,225.158193 460.3,227.55 C468.256216,230.147171 476.580881,231.437241 484.95,231.37 C493.31,231.37 500.436667,230.423333 506.33,228.53 C512.015754,226.762021 517.383162,224.098571 522.23,220.64 C527.006821,217.16155 531.327367,213.096339 535.09,208.54 C539.09,203.85 549.09,193.21 549.09,193.21 L549.09,210.8 C549.09,219.995541 556.544459,227.45 565.74,227.45 L607.64,227.45 C609.412834,227.45 610.85,226.012834 610.85,224.24 L610.85,213.72 C610.848355,212.029893 609.536487,210.630567 607.85,210.52 C604.613819,210.36939 601.394178,209.968188 598.22,209.32 C595.259155,208.551651 592.588846,206.931386 590.54,204.66 C588.429862,202.109802 586.949919,199.098531 586.22,195.87 C585.239235,191.313656 584.782935,186.660068 584.86,182 L584.86,78.46 C584.86,65.6933333 583.316667,54.92 580.23,46.14 C577.570782,37.966674 572.844682,30.6191733 566.51,24.81 C560.4,19.32 552.76,15.4 543.68,13 C534.6,10.6 523.89,9.41 511.68,9.41 C502.348737,9.36206885 493.02872,10.0643306 483.81,11.51 C475.899925,12.7239344 468.190167,15.001206 460.89,18.28 C454.838741,20.9056775 449.508559,24.9496188 445.35,30.07 C441.56,34.89 439.71,40.7 439.71,47.6 C439.71,56.86 442.58,63.37 448.37,67.11 C453.52,70.47 460.73,72.34 470.06,72.72 C470.988456,72.7578822 471.893866,72.4249986 472.576666,71.7947217 C473.259466,71.1644449 473.663603,70.2885149 473.7,69.36 C473.815931,64.6858674 474.250271,60.025069 475,55.41 C475.76517,50.4633209 477.60127,45.7433854 480.38,41.58 C483.153921,37.5670747 487.005174,34.4195161 491.49,32.5 C496.21,30.38 502.49,29.3 510.1,29.3 C518.3,29.3 524.87,30.51 529.75,32.89 C534.393207,35.0821163 538.283386,38.5999793 540.93,43 C543.68982,47.8073797 545.41659,53.137547 546,58.65 C546.834137,65.2196793 547.228348,71.8377548 547.18,78.46 L547.18,99.32 C547.181013,101.05627 545.805257,102.480687 544.07,102.54 L514,103.6 Z M547.17,151.17 C547.273284,158.992747 546.021465,166.774321 543.47,174.17 C541.224597,180.712305 537.607171,186.699299 532.86,191.73 C528.122016,196.633702 522.367052,200.439624 516,202.88 C509.001448,205.564205 501.554868,206.887891 494.06,206.78 C483.06,206.78 474.84,203.7 469.62,197.52 C464.4,191.34 461.71,182.02 461.71,169.52 C461.571373,162.508931 462.584854,155.522669 464.71,148.84 C466.630363,142.981081 470.107754,137.754624 474.77,133.72 C479.43,129.61 485.58,126.46 493.17,124.16 C500.76,121.86 510.23,120.49 521.57,119.98 L543.48,118.98 C544.425044,118.936251 545.346785,119.281379 546.030691,119.935058 C546.714597,120.588736 547.101012,121.493944 547.1,122.44 L547.17,151.17 Z" id="Shape"></path>
            <path d="M187.51,16.64 C187.522871,23.8975223 192.945251,30.0062791 200.15,30.88 L201.25,31.04 C204.950453,31.601487 208.49279,32.9298633 211.65,34.94 C214.746036,36.9956258 217.208095,39.8732224 218.76,43.25 C220.553333,46.8033333 221.446667,51.51 221.44,57.37 L221.44,153.16 C221.44,166.826667 222.893333,178.59 225.8,188.45 C228.706667,198.31 232.956667,206.446667 238.55,212.86 C244.155879,219.21031 251.286626,224.028382 259.27,226.86 C268.299098,230.001996 277.811152,231.528663 287.37,231.37 C293.633359,231.379565 299.887183,230.881266 306.07,229.88 C318.415905,227.939748 329.842241,222.175866 338.74,213.4 C342.02,210.28 347.74,203.21 351.17,198.82 C351.600882,198.284282 352.321566,198.07651 352.971508,198.300628 C353.62145,198.524746 354.060896,199.132562 354.07,199.82 C354.07,215.079628 366.440372,227.45 381.7,227.45 L419.5,227.45 C421.272834,227.45 422.71,226.012834 422.71,224.24 L422.71,213.79 C422.711636,212.070431 421.357934,210.654996 419.64,210.58 C416.44,210.45 411.54,210.19 408.99,209.8 C405.302937,209.335519 401.751845,208.113235 398.56,206.21 C395.431209,204.27537 392.954524,201.446863 391.45,198.09 C389.66,194.52 388.77,189.83 388.77,183.97 L388.77,16.69 C388.77,14.806709 387.243291,13.28 385.36,13.28 L320.83,13.28 C318.946709,13.28 317.42,14.806709 317.42,16.69 C317.420915,23.9133632 322.826412,29.9934726 330,30.84 C330.51,30.9 331,30.96 331.37,31.03 C335.075682,31.58444 338.613226,32.9502871 341.73,35.03 C344.807306,37.2729849 347.225014,40.3020276 348.73,43.8 C350.52,47.65 351.39,52.69 351.39,58.93 L351.39,141.24 C351.478214,150.099384 350.494401,158.93691 348.46,167.56 C346.806802,174.907609 343.713894,181.854756 339.36,188 C335.29768,193.592417 329.932642,198.109621 323.73,201.16 C317.42,204.27 309.87,205.85 301.01,205.85 C293.01,205.85 286.25,204.62 280.82,202.24 C275.607095,199.987153 271.140688,196.30098 267.94,191.61 C264.57191,186.39286 262.258355,180.566505 261.13,174.46 C259.689462,166.796115 259.019458,159.007311 259.13,151.21 L259.13,16.71 C259.13,15.8003074 258.768626,14.9278735 258.125376,14.2846237 C257.482126,13.641374 256.609693,13.28 255.7,13.28 L190.87,13.28 C189.014323,13.28 187.51,14.7843232 187.51,16.64 Z" id="Shape"></path>
            <path d="M835.11,230.32 C830.435478,234.531463 826.67462,239.657121 824.06,245.38 C821.28,251.25 819.93,258.11 819.93,265.92 C819.93,284.333333 826.843333,298.666667 840.67,308.92 C854.496667,319.173333 875.37,324.323333 903.29,324.37 C921.403333,324.37 937.156667,322.61 950.55,319.09 C963.943333,315.57 975.016667,310.57 983.77,304.09 C992.145754,298.024121 998.822531,289.907998 1003.16,280.52 C1007.51918,270.733029 1009.68969,260.112539 1009.52,249.4 C1009.59108,241.256536 1008.35884,233.154142 1005.87,225.4 C1003.63278,218.226136 999.682311,211.704952 994.36,206.4 C988.553805,200.86365 981.603798,196.668385 974,194.11 C965.61,191.11 955.43,189.61 943.44,189.61 L898,189.61 C894.704384,189.621545 891.410257,189.468019 888.13,189.15 C885.380982,188.891159 882.697791,188.156918 880.2,186.98 C878.072477,185.960288 876.271636,184.367237 875,182.38 C873.659713,179.984837 873.018729,177.261522 873.15,174.52 C873.112894,171.710498 873.639966,168.922116 874.7,166.32 C875.718861,163.885818 877.146054,161.64357 878.92,159.69 C880.725749,157.658274 882.793912,155.875955 885.07,154.39 C886.99,153.136667 888.99,151.96 891.07,150.86 C892.028935,150.360636 893.117258,150.165296 894.19,150.3 L896.61,150.59 C898.3,150.77 900.17,150.92 902.1,150.98 C904.03,151.04 906.02,151.1 907.98,151.18 C909.94,151.26 911.72,151.25 913.27,151.25 C925.42,151.25 935.99,149.53 945.06,146.09 C953.534844,143.005631 961.224425,138.08867 967.58,131.69 C973.585604,125.481995 978.165313,118.039115 981,109.88 C984.091613,101.045483 985.617838,91.7392274 985.51,82.38 C985.51,70.9066667 984.036667,61.36 981.09,53.74 C978.836096,47.7087328 975.810961,41.9945899 972.09,36.74 C971.538436,35.9557985 971.362506,34.9675848 971.609539,34.0412104 C971.856572,33.114836 972.501199,32.3454374 973.37,31.94 C974.841326,31.2263157 976.370042,30.6375762 977.94,30.18 C980.909213,29.3589045 983.979586,28.9616414 987.06,29 C989.337676,28.9019843 991.607071,29.333272 993.69,30.26 C995.283109,31.0098553 996.659521,32.1522771 997.69,33.58 C998.645521,34.9064134 999.347337,36.3981962 999.76,37.98 C999.89,38.57 1000,39.15 1000.09,39.74 C1000.33754,41.4312927 1001.85638,42.6393594 1003.56,42.5 C1005.71134,42.3236988 1007.82448,41.8282743 1009.83,41.03 C1012.31963,40.0295959 1014.55413,38.4852674 1016.37,36.51 C1018.08667,34.5885869 1019.38423,32.3306196 1020.18,29.88 C1021.05221,27.2488267 1021.48467,24.4918602 1021.46,21.72 C1021.48885,19.0105316 1020.99307,16.3210851 1020,13.8 C1019.03532,11.3023558 1017.54498,9.04127706 1015.63,7.17 C1013.51452,5.17682578 1011.00831,3.64449923 1008.27,2.67 C1004.91505,1.49096488 1001.37531,0.925283793 997.82,1 C993.579845,0.966840809 989.367587,1.68807148 985.38,3.13 C981.641377,4.52375901 978.072097,6.3352356 974.74,8.53 C971.56975,10.5661709 968.608669,12.910918 965.9,15.53 C964.12,17.24 962.52,18.85 961.07,20.35 C959.974354,21.5023429 958.20581,21.6927364 956.89,20.8 C955.124168,19.5935889 953.268772,18.523811 951.34,17.6 C947.867489,15.9262485 944.269955,14.5253501 940.58,13.41 C936.328895,12.0822192 931.983055,11.0793331 927.58,10.41 C922.848791,9.71594177 918.071762,9.38165007 913.29,9.41 C900.64,9.41 889.64,11.05 880.23,14.47 C871.387346,17.5220361 863.354732,22.5454123 856.74,29.16 C850.341349,35.7528395 845.517553,43.7081709 842.63,52.43 C839.503333,61.5566667 837.946667,71.9366667 837.96,83.57 C837.946699,90.1021049 838.77348,96.6088022 840.42,102.93 C841.950274,108.993122 844.305592,114.817487 847.42,120.24 C850.485663,125.477725 854.318131,130.22702 858.79,134.33 C861.701242,136.982017 864.90525,139.2936 868.34,141.22 C869.468512,141.853036 870.189641,143.02442 870.246641,144.317101 C870.303641,145.609782 869.688413,146.840092 868.62,147.57 C862.273333,151.93 857.47,156.386667 854.21,160.94 C849.99,166.75 847.95,173.64 847.95,181.59 C847.91842,185.597232 848.595506,189.578495 849.95,193.35 C851.144702,196.722057 852.858686,199.886854 855.03,202.73 C857.027562,205.391125 859.38316,207.763549 862.03,209.78 C863.314278,210.732163 864.6496,211.613475 866.03,212.42 C866.641415,212.726966 866.990007,213.388711 866.897369,214.066557 C866.80473,214.744403 866.29136,215.288347 865.62,215.42 C860.613718,216.547099 855.720251,218.126932 851,220.14 C845.181325,222.639759 839.813101,226.078936 835.11,230.32 Z M884,42.19 C889.56,33.39 898.77,28.99 911.71,28.99 C924.65,28.99 934,33.29 939.51,41.9 C945.02,50.51 947.74,63.81 947.74,81.8 C947.833609,89.3806134 947.193965,96.9525165 945.83,104.41 C944.903397,109.977665 942.818446,115.288838 939.71,120 C936.911548,123.974921 933.060886,127.091464 928.59,129 C924.123333,130.946667 918.623333,131.923333 912.09,131.93 C899.19,131.93 889.87,127.93 884.22,120 C878.57,112.07 875.68,99.51 875.68,82.41 C875.68,64.3833333 878.453333,50.9766667 884,42.19 Z M856.15,244 C858.366468,239.354655 861.762858,235.372086 866,232.45 C870.267167,229.655964 875.0573,227.757602 880.08,226.87 C885.477893,225.891233 890.954127,225.409218 896.44,225.43 L935.73,225.43 C941.638703,225.359105 947.541992,225.814234 953.37,226.79 C957.931267,227.508575 962.301323,229.137568 966.22,231.58 C969.671644,233.899448 972.374636,237.172223 974,241 C975.76,245 976.67,250 976.67,256.18 C976.731502,262.813517 975.603674,269.404368 973.34,275.64 C971.014061,281.740455 967.018455,287.063309 961.81,291 C956.36,295.3 948.91,298.67 939.59,301.08 C930.27,303.49 918.42,304.66 904.06,304.66 C893.873333,304.66 885.456667,303.623333 878.81,301.55 C872.163333,299.476667 866.893333,296.603333 863,292.93 C859.157088,289.355167 856.31929,284.834689 854.77,279.82 C853.170627,274.490939 852.371907,268.95382 852.4,263.39 C852.39,255.44 853.62,249 856.15,244 Z" id="Shape"></path>
            <path d="M792.49,52.31 C789.4,42.42 784.99,34.31 779.2,28.01 C773.398722,21.7261593 766.177513,16.9223064 758.14,14 C749.082523,10.8111235 739.531323,9.25367857 729.93,9.4 C723.819851,9.36436833 717.717778,9.84945641 711.69,10.85 C705.980772,11.7874547 700.457891,13.6306657 695.33,16.31 C689.877005,19.1910136 684.92904,22.9399834 680.68,27.41 C677.87,30.31 672.88,36.41 669.41,40.82 C668.841679,41.5292495 667.887358,41.8021557 667.029982,41.5006112 C666.172605,41.1990668 665.599223,40.3888579 665.6,39.48 L665.6,31.3 C665.6,21.3588745 657.541125,13.3 647.6,13.3 L599.1,13.3 C597.2388,13.3 595.73,14.8088004 595.73,16.67 C595.743148,23.9453629 601.202359,30.0579607 608.43,30.89 L609.52,31.04 C613.219227,31.6180447 616.759574,32.952483 619.92,34.96 C622.981463,37.0204628 625.428003,39.8713042 627,43.21 C628.746667,46.7966667 629.616667,51.5133333 629.61,57.36 L629.61,224.07 C629.61,225.942245 631.127755,227.46 633,227.46 L697.57,227.46 C699.486428,227.46 701.04,225.906428 701.04,223.99 L701.04,213.79 C701.041636,212.070431 699.687934,210.654996 697.97,210.58 C694.75,210.44 689.82,210.19 687.29,209.82 C683.595962,209.333631 680.040061,208.098423 676.84,206.19 C673.721709,204.246119 671.242571,201.429706 669.71,198.09 C667.96,194.56 667.1,189.83 667.1,183.97 L667.1,99.69 C667.066188,91.4406863 667.887239,83.2100707 669.55,75.13 C670.968009,67.8118408 673.70231,60.8117593 677.62,54.47 C681.34621,48.5375306 686.504364,43.6372844 692.62,40.22 C698.75,36.71 706.41,34.94 715.52,34.94 C723.586667,34.94 730.41,36.1366667 735.99,38.53 C741.387234,40.8165847 746.078024,44.4994932 749.58,49.2 C753.231453,54.3373003 755.775252,60.1774815 757.05,66.35 C758.697127,73.9782468 759.488683,81.7663479 759.41,89.57 L759.41,224.27 C759.41,226.042834 760.847166,227.48 762.62,227.48 L825.83,227.48 C827.602834,227.48 829.04,226.042834 829.04,224.27 L829.04,213.78 C829.041874,212.06413 827.693997,210.65018 825.98,210.57 C822.75,210.42 817.79,210.13 815.38,209.72 C811.845624,209.181937 808.489931,207.810867 805.59,205.72 C802.705238,203.493041 800.521793,200.483427 799.3,197.05 C797.8,193.29 797.03,188.29 797.03,182.05 L797.03,87.61 C797.01,73.9433333 795.496667,62.1766667 792.49,52.31 Z" id="Shape"></path>
            <path d="M186.42,469.35 C184.152195,462.209366 180.193284,455.722103 174.88,450.44 C169.105554,444.832397 162.153603,440.582654 154.53,438 C146.17,435.026667 136.023333,433.53 124.09,433.51 L78.81,433.51 C75.5242108,433.517688 72.240098,433.360825 68.97,433.04 C66.2283618,432.788804 63.5515658,432.06123 61.06,430.89 C58.9474728,429.860399 57.156338,428.273274 55.88,426.3 C54.5398756,423.921902 53.8888658,421.217441 54,418.49 C53.9761721,415.688154 54.5028033,412.908901 55.55,410.31 C56.5845014,407.894653 58.0028109,405.662504 59.75,403.7 C61.5636476,401.67824 63.6346445,399.9031 65.91,398.42 C68.304833,396.855761 70.785383,395.426857 73.34,394.14 C74.34,394.28 75.75,394.42 77.45,394.63 C79.15,394.84 80.93,394.97 82.88,395.02 C84.83,395.07 86.76,395.14 88.72,395.23 C90.68,395.32 92.47,395.31 93.99,395.31 C106.096667,395.31 116.66,393.59 125.68,390.15 C134.129149,387.084966 141.793223,382.18392 148.12,375.8 C154.092495,369.607942 158.644664,362.18934 161.46,354.06 C164.558308,345.247143 166.094694,335.961146 166,326.62 C166,315.19 164.67,305.62 161.59,298.06 C158.336878,289.543309 153.562593,281.688949 147.5,274.88 C146.44,273.68 145.43,272.6 144.5,271.62 C143.441731,270.548024 143.271207,268.884375 144.09,267.62 C145.121389,265.999956 146.310512,264.485917 147.64,263.1 C149.820664,260.901102 152.302013,259.022415 155.01,257.52 C156.931301,256.308804 159.10256,255.549718 161.36,255.3 C163.1077,255.17173 164.860563,255.466732 166.47,256.16 C167.961646,256.835092 169.317274,257.777253 170.47,258.94 C170.87,259.366667 171.25,259.803333 171.61,260.25 C172.639524,261.630137 174.57067,261.960059 176,261 C177.777354,259.772029 179.361473,258.285654 180.7,256.59 C182.352792,254.484093 183.511321,252.033752 184.09,249.42 C184.631239,246.905462 184.631239,244.304538 184.09,241.79 C183.520898,239.085065 182.507145,236.493236 181.09,234.12 C179.75359,231.776433 177.993783,229.701285 175.9,228 C173.810017,226.324214 171.380518,225.123113 168.78,224.48 C165.959493,223.811962 163.030975,223.737047 160.18,224.26 C156.698001,224.907946 153.361316,226.178258 150.33,228.01 C146.657414,230.085837 143.380397,232.794115 140.65,236.01 C138.116782,239.090204 135.936525,242.444445 134.15,246.01 C132.439917,249.353263 131.072937,252.861173 130.07,256.48 L129.85,257.26 C129.612072,258.119864 129.023874,258.84023 128.228955,259.245297 C127.434036,259.650363 126.505517,259.702869 125.67,259.39 C124.256667,258.863333 122.786667,258.36 121.26,257.88 C117.006532,256.575357 112.660934,255.592583 108.26,254.94 C103.539437,254.237604 98.7725045,253.893288 94,253.91 C81.39,253.91 70.37,255.56 61,258.96 C52.1846694,261.997062 44.1758769,266.999992 37.58,273.59 C31.2243394,280.173137 26.4384814,288.107406 23.58,296.8 C20.4466667,305.9 18.8866667,316.233333 18.9,327.8 C18.8954119,334.316369 19.7289156,340.806271 21.38,347.11 C22.8952476,353.155867 25.2515649,358.95914 28.38,364.35 C31.3952206,369.567872 35.1964929,374.289949 39.65,378.35 C44.1475678,382.485114 49.3453098,385.786612 55,388.1 C45.87,393.55 39.26,399.2 35.12,404.97 C28.7035888,414.463206 27.1047246,426.413976 30.8,437.26 C31.999791,440.619643 33.706171,443.776109 35.86,446.62 C37.8553468,449.268468 40.2115319,451.624653 42.86,453.62 C45.3337322,455.491329 48.0188142,457.065458 50.86,458.31 C44.3757871,459.476534 38.0474486,461.385773 32,464 C26.182143,466.493979 20.8112726,469.922554 16.1,474.15 C11.4600811,478.357737 7.71850208,483.45989 5.1,489.15 C2.26124452,495.59759 0.862098086,502.586497 1,509.63 C1,527.976667 7.88333333,542.276667 21.65,552.53 C35.4166667,562.783333 56.2333333,567.916667 84.1,567.93 C102.1,567.93 117.88,566.17 131.19,562.68 C144.5,559.19 155.54,554.19 164.27,547.75 C172.652379,541.723184 179.329501,533.626571 183.65,524.25 C188.000375,514.502528 190.170883,503.923008 190.01,493.25 C190.090671,485.1432 188.878806,477.075347 186.42,469.35 Z M64.86,286.56 C70.4,277.79 79.58,273.42 92.51,273.42 C105.44,273.42 114.7,277.69 120.18,286.28 C125.66,294.87 128.38,308.12 128.38,326.07 C128.478749,333.621228 127.862669,341.164857 126.54,348.6 C125.568673,354.136781 123.472148,359.415531 120.38,364.11 C117.620372,368.073402 113.81138,371.18985 109.38,373.11 C104.873333,375.036667 99.37,376 92.87,376 C79.99,376 70.72,372.036667 65.06,364.11 C59.43,356.11 56.56,343.68 56.56,326.63 C56.5666667,308.69 59.3333333,295.333333 64.86,286.56 Z M153.91,519.28 C151.577196,525.354751 147.607033,530.664454 142.44,534.62 C136.94,538.9 129.556667,542.233333 120.29,544.62 C110.95,547 99.16,548.18 84.85,548.18 C74.72,548.18 66.36,547.18 59.68,545.08 C53,542.98 47.8,540.08 43.89,536.49 C40.0570114,532.928461 37.228946,528.420801 35.69,523.42 C34.1302938,518.101249 33.358757,512.582571 33.4,507.04 C33.4,499.12 34.63,492.66 37.08,487.74 C39.2975347,483.095052 42.6979954,479.115202 46.94,476.2 C51.1781572,473.412327 55.9429768,471.523416 60.94,470.65 C66.3212404,469.672606 71.7807524,469.190589 77.25,469.21 L116.5,469.21 C122.363198,469.159868 128.219343,469.62836 134,470.61 C138.536021,471.317846 142.880721,472.940729 146.77,475.38 C150.229574,477.675929 152.938402,480.93765 154.56,484.76 C156.35,488.76 157.22,493.76 157.22,499.88 C157.284406,506.492473 156.163355,513.06298 153.91,519.28 Z" id="Shape"></path>
            <path d="M187.51,261.14 C187.522871,268.397522 192.945251,274.506279 200.15,275.38 L201.25,275.54 C204.950453,276.101487 208.49279,277.429863 211.65,279.44 C214.746036,281.495626 217.208095,284.373222 218.76,287.75 C220.553333,291.303333 221.446667,296.01 221.44,301.87 L221.44,397.66 C221.44,411.326667 222.893333,423.09 225.8,432.95 C228.706667,442.81 232.956667,450.946667 238.55,457.36 C244.155879,463.71031 251.286626,468.528382 259.27,471.36 C268.299098,474.501996 277.811152,476.028663 287.37,475.87 C293.633359,475.879565 299.887183,475.381266 306.07,474.38 C318.415905,472.439748 329.842241,466.675866 338.74,457.9 C342.02,454.78 347.74,447.71 351.17,443.32 C351.600882,442.784282 352.321566,442.57651 352.971508,442.800628 C353.62145,443.024746 354.060896,443.632562 354.07,444.32 C354.05672,451.658324 356.963239,458.700493 362.148473,463.89323 C367.333707,469.085968 374.371664,472.002668 381.71,472 L419.5,472 C421.272834,472 422.71,470.562834 422.71,468.79 L422.71,458.29 C422.711636,456.570431 421.357934,455.154996 419.64,455.08 C416.44,454.95 411.54,454.69 408.99,454.3 C405.302937,453.835519 401.751845,452.613235 398.56,450.71 C395.431209,448.77537 392.954524,445.946863 391.45,442.59 C389.66,439.02 388.77,434.33 388.77,428.47 L388.77,261.19 C388.77,260.285612 388.410733,259.418265 387.771234,258.778766 C387.131735,258.139267 386.264388,257.78 385.36,257.78 L320.83,257.78 C319.925612,257.78 319.058265,258.139267 318.418766,258.778766 C317.779267,259.418265 317.42,260.285612 317.42,261.19 C317.415844,268.417178 322.822622,274.503026 330,275.35 C330.51,275.41 331,275.47 331.37,275.54 C335.075682,276.09444 338.613226,277.460287 341.73,279.54 C344.807306,281.782985 347.225014,284.812028 348.73,288.31 C350.52,292.16 351.39,297.2 351.39,303.44 L351.39,385.75 C351.478214,394.609384 350.494401,403.44691 348.46,412.07 C346.812181,419.404884 343.729684,426.341353 339.39,432.48 C335.32768,438.072417 329.962642,442.589621 323.76,445.64 C317.45,448.75 309.9,450.33 301.04,450.33 C293.04,450.33 286.28,449.1 280.85,446.72 C275.637095,444.467153 271.170688,440.78098 267.97,436.09 C264.60191,430.87286 262.288355,425.046505 261.16,418.94 C259.719462,411.276115 259.049458,403.487311 259.16,395.69 L259.16,261.21 C259.16,259.315663 257.624337,257.78 255.73,257.78 L190.87,257.78 C189.014323,257.78 187.51,259.284323 187.51,261.14 Z" id="Shape"></path>
            <path d="M573.71,261.49 C566.603333,256.41 555.773333,253.88 541.22,253.9 C532.34,253.9 525.02,255.03 519.16,257.31 C513.673789,259.368526 508.669978,262.534202 504.46,266.61 C500.407256,270.693107 497.010435,275.378494 494.39,280.5 C492.98,283.2 490.39,287.58 488.23,291.2 C487.790879,292.014924 486.849902,292.422009 485.955297,292.184082 C485.060692,291.946155 484.446269,291.125399 484.47,290.2 L484.47,274.72 C484.442541,265.370171 476.869829,257.797459 467.52,257.77 L411.84,257.77 C409.981034,257.764427 408.466491,259.261099 408.45,261.12 C408.420867,268.539668 414.247963,274.66231 421.66,275 C424.87,275.15 427.78,275.33 429.16,275.55 C432.863167,276.101032 436.40762,277.430202 439.56,279.45 C442.665335,281.499434 445.129673,284.383161 446.67,287.77 C448.463333,291.323333 449.356667,296.036667 449.35,301.91 L449.35,468.75 C449.35,470.522834 450.787166,471.96 452.56,471.96 L527.27,471.96 C529.142245,471.96 530.66,470.442245 530.66,468.57 L530.66,458.57 C530.66,456.697755 529.142245,455.18 527.27,455.18 L519.57,455.18 C515.350746,455.197156 511.135974,454.903024 506.96,454.3 C503.277747,453.776483 499.730223,452.550974 496.51,450.69 C493.403578,448.74043 490.943611,445.915121 489.44,442.57 C487.64,439.04 486.76,434.31 486.76,428.45 L486.76,365.65 C486.76,360.57 487.01,354.93 487.58,348.65 C488.112839,342.344442 488.984095,336.072067 490.19,329.86 C491.435084,323.611093 493.068247,317.445819 495.08,311.4 C496.890419,305.826082 499.386193,300.498629 502.51,295.54 C505.172712,291.216196 508.634355,287.438933 512.71,284.41 C516.587469,281.647128 521.239047,280.180603 526,280.22 C533.79,280.22 539.27,282.66 542.4,287.5 C545.186667,291.886667 546.723333,298.743333 547.01,308.07 C547.085895,309.932316 548.646991,311.386365 550.51,311.33 C555.149007,311.240086 559.758377,310.568166 564.23,309.33 C568.425011,308.220838 572.335288,306.229904 575.7,303.49 C578.624588,301.071698 580.882688,297.946158 582.26,294.41 C583.670006,290.772508 584.379142,286.901105 584.35,283 C584.35,273.72 580.8,266.54 573.71,261.49 Z" id="Shape"></path>
            <path d="M824.84,455 C821.9,454.85 818.45,454.63 816.44,454.32 C812.748002,453.850717 809.193285,452.621547 806,450.71 C802.871209,448.77537 800.394524,445.946863 798.89,442.59 C797.1,439.02 796.21,434.33 796.21,428.47 L796.21,261.19 C796.21,260.285612 795.850733,259.418265 795.211234,258.778766 C794.571735,258.139267 793.704388,257.78 792.8,257.78 L728.28,257.78 C726.417694,257.774321 724.897378,259.267887 724.87,261.13 C724.835314,268.380054 730.249813,274.500418 737.45,275.35 C737.96,275.41 738.45,275.47 738.82,275.54 C742.525767,276.09412 746.063379,277.459993 749.18,279.54 C752.257306,281.782985 754.675014,284.812028 756.18,288.31 C757.97,292.16 758.84,297.2 758.84,303.44 L758.84,385.75 C758.928214,394.609384 757.944401,403.44691 755.91,412.07 C754.262181,419.404884 751.179684,426.341353 746.84,432.48 C742.77768,438.072417 737.412642,442.589621 731.21,445.64 C724.89,448.75 717.35,450.33 708.49,450.33 C700.49,450.33 693.73,449.1 688.3,446.72 C683.087095,444.467153 678.620688,440.78098 675.42,436.09 C672.051679,430.872978 669.738105,425.046576 668.61,418.94 C667.169462,411.276115 666.499458,403.487311 666.61,395.69 L666.61,261.21 C666.61,259.315663 665.074337,257.78 663.18,257.78 L598.33,257.78 C596.474323,257.78 594.97,259.284323 594.97,261.14 C594.982871,268.397522 600.405251,274.506279 607.61,275.38 L608.71,275.54 C612.410453,276.101487 615.95279,277.429863 619.11,279.44 C622.207457,281.498339 624.669649,284.379554 626.22,287.76 C628.013333,291.313333 628.906667,296.02 628.9,301.88 L628.9,397.67 C628.9,411.336667 630.353333,423.1 633.26,432.96 C636.166667,442.82 640.413333,450.95 646,457.35 C651.605879,463.70031 658.736626,468.518382 666.72,471.35 C675.749149,474.491793 685.261167,476.018454 694.82,475.86 C701.083371,475.869873 707.33722,475.371571 713.52,474.37 C725.866114,472.430397 737.292639,466.66642 746.19,457.89 C749.47,454.77 755.19,447.7 758.62,443.31 C759.050882,442.774282 759.771566,442.56651 760.421508,442.790628 C761.07145,443.014746 761.510896,443.622562 761.52,444.31 C761.50406,451.650055 764.409405,458.694796 769.594927,463.889699 C774.78045,469.084602 781.819928,472.002674 789.16,472 L1006.7,472 C1008.26297,472 1009.53,470.732966 1009.53,469.17 L1009.53,457.81 C1009.53,456.247034 1008.26297,454.98 1006.7,454.98 L824.84,455 Z" id="Shape"></path>
        </g>
    </g>
</svg>